<?xml version="1.0" standalone="no"?>
<!DOCTYPE svg PUBLIC "-//W3C//DTD SVG 20010904//EN"
 "http://www.w3.org/TR/2001/REC-SVG-20010904/DTD/svg10.dtd">
<svg version="1.0" xmlns="http://www.w3.org/2000/svg"
 width="225.000000pt" height="225.000000pt" viewBox="0 0 225.000000 225.000000"
 preserveAspectRatio="xMidYMid meet">

<g transform="translate(0.000000,225.000000) scale(0.100000,-0.100000)"
fill="#000000" stroke="none">
<path d="M943 2145 c-689 -125 -1058 -881 -734 -1502 248 -473 820 -679 1315
-473 386 161 636 536 636 956 0 444 -289 844 -710 983 -151 49 -354 64 -507
36z m314 -466 c187 -91 231 -336 87 -484 -82 -85 -195 -119 -302 -91 -107 27
-173 81 -217 179 -23 50 -27 69 -23 135 2 56 10 89 26 122 84 161 264 220 429
139z m54 -679 c128 -24 243 -113 297 -228 20 -43 27 -77 30 -138 4 -80 4 -81
-27 -106 -50 -43 -105 -48 -486 -48 -381 0 -436 5 -486 48 -31 26 -31 26 -27
106 5 100 36 174 104 246 51 55 141 105 214 119 63 12 317 13 381 1z"/>
</g>
</svg>
